<svg width="174" height="98" viewBox="0 0 174 98" fill="none" xmlns="http://www.w3.org/2000/svg">
<path fill-rule="evenodd" clip-rule="evenodd" d="M12.4098 39.8621L20.33 39.5919L21.0226 35.4793L13.1326 35.2391L13.5843 32.2972C13.6843 31.6772 13.8854 31.2165 14.1866 30.9163C14.4877 30.6161 14.9696 30.466 15.6321 30.466H23.2511L23.9437 26.0833C21.0121 25.8033 17.9608 25.653 14.7889 25.6331C13.2427 25.6331 11.9025 26.0231 10.7687 26.8036C9.63402 27.5841 8.91651 28.9453 8.61536 30.8863L8.05628 34.3971L5.43818 49.9185L7.30715 49.5907L4.80371 59.8531L15.3249 44.0613L11.6513 44.5741L12.4098 39.8621Z" fill="#48ACF0"/>
<path fill-rule="evenodd" clip-rule="evenodd" d="M28.7409 39.2357L32.5699 30.0871L33.4816 39.2357H28.7409ZM30.0476 25.6331L19.5938 47.9631H24.9726L26.7656 43.9003H33.9678L34.4543 47.9631H39.8937L36.6117 25.6331H30.0476Z" fill="#48ACF0"/>
<path fill-rule="evenodd" clip-rule="evenodd" d="M58.3386 30.0569L59.0336 25.6331H44.0406L43.2847 30.2977H52.3231L41.1689 43.5693L40.4736 47.9631H55.7994L56.5551 43.2984H47.2145L58.3386 30.0569Z" fill="#48ACF0"/>
<path fill-rule="evenodd" clip-rule="evenodd" d="M75.8537 25.6331H60.8608L60.1049 30.2977H69.1431L57.9891 43.5693L57.2937 47.9631H72.6193L73.375 43.2984H64.0345L75.1584 30.0569L75.8537 25.6331Z" fill="#48ACF0"/>
<path d="M93.6031 26.3672C93.6031 26.1029 93.3694 25.8974 93.0773 25.8974H78.5901C78.2688 25.8974 77.9767 26.1323 77.9183 26.4553L77.3926 29.4802C77.3926 29.5096 77.3926 29.5389 77.3926 29.5977C77.3926 29.862 77.5678 30.0382 77.8599 30.0382H82.6208L79.6416 47.13C79.6416 47.1594 79.6416 47.1888 79.6416 47.2475C79.6416 47.5118 79.8168 47.7174 80.1089 47.7174H83.9352C84.2565 47.7174 84.5778 47.4531 84.6362 47.13L87.6154 30.0382H92.3471C92.6684 30.0382 93.0189 29.8032 93.0773 29.4802L93.6031 26.4553C93.6031 26.426 93.6031 26.3966 93.6031 26.3672Z" fill="#4C4C4C"/>
<path d="M111.417 31.2422C111.417 27.2776 108.146 25.6331 103.765 25.6331C101.662 25.6331 99.1501 25.7799 97.7481 26.0148C96.8134 26.1617 96.3753 26.426 96.2001 27.4245L92.7535 47.13V47.1594C92.7535 47.1888 92.7535 47.2181 92.7535 47.2475C92.7535 47.5118 92.9288 47.7174 93.2208 47.7174H97.0179C97.3392 47.7174 97.6605 47.4531 97.7189 47.13L99.004 39.6707C99.559 39.6707 100.464 39.7294 101.078 39.7294C101.311 39.7294 101.487 39.7001 101.604 39.7001C101.633 39.7001 101.633 39.7001 101.633 39.7001L104.261 47.13C104.378 47.4237 104.408 47.7174 104.729 47.7174H108.964C109.314 47.7174 109.49 47.5118 109.49 47.2769C109.49 47.1888 109.461 47.13 109.431 47.0419L106.481 38.7603C109.899 37.5856 111.417 34.737 111.417 31.2422ZM106.423 31.8883C106.423 34.9719 104.641 35.6767 101.779 35.6767C101.458 35.6767 100.056 35.6474 99.7342 35.618L100.727 29.9794C101.078 29.9501 102.597 29.8913 103.006 29.8913C105.284 29.8913 106.423 30.3612 106.423 31.8883Z" fill="#4C4C4C"/>
<path d="M129.517 47.13V47.1007L128.349 28.8928C128.174 26.0736 126.129 25.6331 124.114 25.6331C122.098 25.6331 119.849 26.0736 118.681 28.8928L111.145 47.1007C111.116 47.1888 111.087 47.2769 111.087 47.365C111.087 47.5705 111.233 47.7174 111.496 47.7174H115.673C115.965 47.7174 116.228 47.4824 116.344 47.1888L118.243 42.3725H124.231L124.435 47.1888C124.435 47.4824 124.64 47.7174 124.932 47.7174H128.933C129.254 47.7174 129.517 47.4824 129.517 47.13ZM124.114 38.3492H119.762L122.975 30.2437C123.092 29.9501 123.208 29.8032 123.471 29.8032C123.734 29.8032 123.763 29.9501 123.763 30.2437L124.114 38.3492Z" fill="#4C4C4C"/>
<path d="M148.851 26.7197C148.851 26.6903 148.851 26.6609 148.851 26.6315C148.851 26.3379 148.676 26.2498 148.326 26.1323C147.742 25.9267 146.106 25.6331 144.061 25.6331C139.388 25.6331 135.182 27.2189 133.78 34.9425L133.108 38.6428C132.962 39.4064 132.904 40.1406 132.904 40.816C132.904 45.6323 136.292 47.9817 140.118 47.9817C142.163 47.9817 143.915 47.688 144.558 47.4824C144.996 47.365 145.23 47.2181 145.317 46.807L145.843 43.9583C145.843 43.8996 145.872 43.8409 145.872 43.8115C145.872 43.5178 145.668 43.371 145.376 43.371C145.346 43.371 145.317 43.371 145.288 43.371C144.149 43.4591 142.543 43.6059 140.936 43.6059C139.271 43.6059 137.986 42.8717 137.986 40.4342C137.986 39.9056 138.044 39.3183 138.161 38.6428L138.833 34.9425C139.534 31.0367 141.316 29.9794 143.331 29.9794C144.938 29.9794 146.515 30.1263 147.596 30.2144H147.625C147.625 30.2144 147.625 30.2144 147.654 30.2144C148.034 30.2144 148.297 29.9794 148.355 29.627L148.851 26.7784C148.851 26.749 148.851 26.749 148.851 26.7197Z" fill="#4C4C4C"/>
<path d="M169.196 26.191C169.196 26.0148 169.05 25.8974 168.758 25.8974H163.968C163.647 25.8974 163.471 26.0148 163.267 26.2498L155.556 35.3537L157.133 26.4553C157.133 26.426 157.133 26.3966 157.133 26.3672C157.133 26.0736 156.929 25.8974 156.637 25.8974H152.811C152.489 25.8974 152.197 26.1323 152.139 26.4553L148.517 47.13C148.517 47.1594 148.517 47.1888 148.517 47.2475C148.517 47.5118 148.692 47.7174 148.984 47.7174H152.811C153.132 47.7174 153.453 47.4531 153.512 47.13L155.176 37.615L159.382 47.3062C159.499 47.5412 159.616 47.7174 159.966 47.7174H164.669C164.961 47.7174 165.136 47.5705 165.136 47.365C165.136 47.2769 165.136 47.1888 165.078 47.1007L159.937 36.5577L168.963 26.6315C169.109 26.4553 169.196 26.3085 169.196 26.191Z" fill="#4C4C4C"/>
</svg>
